
<svg viewBox="0 0 200 200" xmlns="http://www.w3.org/2000/svg">
  <!-- Black background -->
  <rect width="200" height="200" fill="#000000"/>
  
  <!-- Stylized B letter - minimal white -->
  <path d="M 60 40 L 60 160 L 110 160 C 130 160 145 150 145 135 C 145 125 140 118 132 115 C 138 112 142 105 142 95 C 142 80 130 40 110 40 Z M 80 55 L 108 55 C 118 55 122 65 122 82 C 122 95 118 100 108 100 L 80 100 Z M 80 115 L 110 115 C 120 115 125 122 125 135 C 125 145 120 145 110 145 L 80 145 Z" 
        fill="#ffffff"/>
</svg>